# xmcd CD database file
#
# Track frame offsets:
#	150
#	16355
#	42145
#
# Disc length: 726 seconds
#
# Revision: 0
# Processed by: cddbd v1.5.1PL0 Copyright (c) Steve Scherf et al.
# Submitted via: CDex 1.51
#
DISCID=1902d403
DTITLE=キウイロール - バカネジ
DYEAR=2000
DGENRE=Rock
TTITLE0=バカネジ
TTITLE1=うたたね
TTITLE2=日曜日
EXTD=YEAR: 2000
EXTT0=
EXTT1=
EXTT2=
PLAYORDER=
